<?xml version="1.0" encoding="UTF-8" standalone="no"?>
<!-- Created with Inkscape (http://www.inkscape.org/) -->

<svg
   width="512"
   height="512"
   viewBox="0 0 512 512"
   version="1.1"
   id="svg1"
   inkscape:version="1.3.2 (091e20ef0f, 2023-11-25, custom)"
   sodipodi:docname="carnivore-logo.svg"
   xmlns:inkscape="http://www.inkscape.org/namespaces/inkscape"
   xmlns:sodipodi="http://sodipodi.sourceforge.net/DTD/sodipodi-0.dtd"
   xmlns="http://www.w3.org/2000/svg"
   xmlns:svg="http://www.w3.org/2000/svg">
  <sodipodi:namedview
     id="namedview1"
     pagecolor="#505050"
     bordercolor="#ffffff"
     borderopacity="1"
     inkscape:showpageshadow="0"
     inkscape:pageopacity="0"
     inkscape:pagecheckerboard="1"
     inkscape:deskcolor="#505050"
     inkscape:document-units="px"
     inkscape:zoom="0.77616018"
     inkscape:cx="174.57737"
     inkscape:cy="331.76142"
     inkscape:window-width="1366"
     inkscape:window-height="743"
     inkscape:window-x="0"
     inkscape:window-y="0"
     inkscape:window-maximized="0"
     inkscape:current-layer="layer1" />
  <defs
     id="defs1" />
  <g
     inkscape:label="Layer 1"
     inkscape:groupmode="layer"
     id="layer1">
    <g
       id="g20">
      <rect
         style="fill:#ffffff;fill-opacity:1;stroke:#000000;stroke-width:4.943;stroke-dasharray:none"
         id="rect19"
         width="506.59384"
         height="505.828"
         x="2.8716483"
         y="2.886992" />
      <g
         id="g19"
         transform="matrix(1.2365517,0,0,1.2365517,-99.747132,-95.304562)">
        <circle
           id="path1"
           style="fill:#000000;stroke:#000000"
           cx="104.80071"
           cy="178.23488"
           r="0.45864031" />
        <circle
           id="path2"
           style="fill:#000000;stroke:#000000"
           cx="172.52313"
           cy="186.59431"
           r="0.45864031" />
        <path
           style="fill:#000000"
           id="path3"
           d="m 96.251617,168.26508 c 3.961363,7.04474 8.177513,13.93077 12.508823,20.75407 8.02483,12.38578 15.21233,25.26756 22.10075,38.30953 3.21548,6.29063 6.59877,12.49274 9.75514,18.81335 0,0 12.66841,5.66933 12.66841,5.66933 v 0 c -3.8366,-6.37183 -7.42186,-12.89176 -11.04443,-19.38662 -7.28472,-12.81214 -14.67667,-25.56408 -22.02367,-38.34048 -3.7728,-6.40245 -7.62759,-12.82729 -10.46574,-19.71255 z" />
        <path
           style="fill:#000000"
           id="path4"
           d="m 151.63689,248.14121 c 1.49398,-6.0061 3.7496,-11.76787 6.15781,-17.45499 2.59381,-6.08631 5.76664,-11.84937 9.23578,-17.46847 2.29162,-3.65812 5.02255,-7.01632 7.6421,-10.44146 1.7548,-2.11472 3.28047,-4.40005 4.84388,-6.65528 0.74113,-1.11746 1.20822,-2.38552 1.68276,-3.6321 0,0 -12.97719,-7.19211 -12.97719,-7.19211 v 0 c -0.39834,1.15664 -0.75347,2.34477 -1.40749,3.38852 -1.4427,2.28981 -2.68087,4.71427 -4.40146,6.82069 -2.56441,3.53269 -5.42645,6.869 -7.57648,10.68081 -3.08836,5.89318 -6.0891,11.81409 -8.74113,17.92302 -2.47445,5.59124 -4.72029,11.28437 -7.34349,16.80771 z" />
        <path
           style="fill:#000000"
           id="path5"
           d="m 181.39342,196.14925 c 3.41334,-0.0333 6.70875,-1.05241 10.03736,-1.71627 0.84691,-0.1311 2.57105,-0.45693 3.49201,-0.39327 0.44484,0.0307 0.86908,0.20008 1.30363,0.30011 -3.794,-2.05186 -7.5243,-4.22616 -11.382,-6.15559 -0.46927,-0.23471 0.82727,0.65497 1.17308,1.04959 0.38112,0.43493 0.6621,0.94832 0.99315,1.42247 2.00327,3.47995 2.61274,7.44037 3.20718,11.34772 0.35057,2.90173 0.90713,5.77207 1.29198,8.66883 0.1595,2.24863 0.43371,4.4618 0.77016,6.68986 0.40389,1.83248 0.47098,5.76052 2.36639,6.84434 4.57776,2.61764 9.28453,5.00292 13.92679,7.50439 3.2248,0.34626 6.47333,0.17089 9.70797,0.10441 3.28326,-0.37634 6.57366,-0.67274 9.87418,-0.84033 2.34605,-0.0969 4.69277,-0.15028 7.04081,-0.14287 0.37752,-0.0161 0.77683,0.0793 1.13255,-0.0482 2.69713,-0.96629 2.64482,-6.35705 2.8337,-8.61953 0.15053,-2.23608 0.21552,-4.47663 0.29203,-6.71609 0.0435,-1.27412 -0.0217,-2.60436 0.28406,-3.84997 -17.91314,-9.01875 -14.26772,-10.22542 -12.36416,-3.64734 0.55768,1.92715 0.936,3.87817 1.29634,5.8494 0.67912,3.65009 0.44502,7.37697 0.81139,11.05119 1.69406,5.78241 9.0335,6.92932 14.14478,9.65685 0.22248,0.11872 4.14693,-0.36374 4.40226,-0.38654 13.59773,-0.62397 27.20008,-0.60652 40.80346,-0.23564 4.94726,-0.0808 13.73151,1.87536 17.31875,-2.93268 1.39287,-1.86689 1.56303,-4.14593 1.99443,-6.32344 0.99229,-4.58468 0.19096,-10.00462 1.66352,-14.46516 -0.32349,5.25819 0.17178,-0.8873 -13.06125,-6.09558 -0.43924,-0.17288 0.11819,0.93688 0.15957,1.40711 0.22124,2.51383 0.25171,5.03653 0.31358,7.55772 0.15457,4.42346 -0.26318,8.84996 -0.12874,13.27096 0.0829,0.37496 0.10011,0.77083 0.24884,1.12488 0.14538,0.34608 0.29189,0.75652 0.61892,0.9408 4.55502,2.56669 9.15782,5.06836 13.91089,7.24654 0.37257,0.17074 4.09396,-0.45369 4.70451,-0.52364 3.20298,-0.5694 5.78104,-0.40542 8.94317,0.20748 2.28877,0.33902 4.4972,0.93408 6.72246,1.54095 0.45315,0.0579 1.08991,0.23467 1.51776,-0.0972 1.61515,-1.25279 2.23466,-4.67378 2.8351,-6.41415 0.40664,-1.17861 0.84983,-2.34428 1.27474,-3.51642 2.67317,-6.93003 4.32221,-14.18202 6.06779,-21.38448 0.75089,-3.10337 1.81807,-6.07108 3.28793,-8.89828 1.14973,-2.21376 3.0328,-2.07154 5.2515,-2.02205 1.63474,0.19081 3.26551,0.54885 4.84372,1.01752 0.48723,0.14468 1.87787,0.75917 1.44019,0.50078 -13.30203,-7.85292 -14.2093,-8.68851 -9.88643,-5.23067 0.36302,0.54156 0.79432,1.04314 1.08906,1.6247 0.63228,1.24758 1.31976,3.87657 1.57033,5.07621 0.98548,4.71802 1.25666,9.48094 1.53097,14.2786 0.428,6.22125 0.081,12.47441 0.65299,18.68837 0.11283,1.22571 0.87893,6.96977 1.05987,8.34642 0.92831,4.30194 1.09094,8.84713 2.57267,13.01358 1.29893,2.62398 2.62937,5.27518 4.2701,7.70826 4.66732,1.97829 9.03424,4.92522 14.00195,5.93486 1.01472,0.20623 0.90002,-1.86688 1.28589,-2.82776 0.60947,-1.51765 1.14494,-3.06407 1.69824,-4.60309 2.25697,-6.27783 2.90102,-8.46444 5.43765,-15.03244 1.20534,-3.12097 2.49616,-6.20825 3.74424,-9.31237 5.56479,-13.45425 11.74739,-26.66602 18.73872,-39.44159 2.26368,-4.13651 4.73919,-8.2301 7.15172,-12.28612 2.15172,-4.0545 5.25898,-7.59258 6.86052,-11.92758 0,0 -12.83577,-6.9365 -12.83577,-6.9365 v 0 c -0.53039,4.52151 -3.50057,8.40681 -4.85026,12.68148 -7.83941,17.6892 -16.05228,35.20054 -24.53712,52.58931 -3.5676,7.791 -7.04034,15.66498 -11.09569,23.22126 -0.74223,1.38297 -1.51161,2.75441 -2.36553,4.07135 -0.46109,0.71111 -2.20166,1.4334 -1.57076,1.99929 3.50829,3.14681 8.03207,4.93234 12.04811,7.39851 -0.25392,-0.11203 -0.55299,-0.15323 -0.76176,-0.3361 -0.3037,-0.26601 -0.49705,-0.63686 -0.72749,-0.96836 -1.27909,-1.84007 -2.35584,-3.8327 -3.35829,-5.83189 -1.7346,-4.23668 -2.5995,-8.76785 -3.66682,-13.20445 -1.523,-8.96688 -2.04454,-18.01694 -2.14735,-27.10861 -0.16307,-3.29804 -0.31225,-6.59677 -0.47947,-9.8946 -0.19746,-3.89435 -0.32426,-7.80356 -1.97821,-11.41244 -5.20828,-6.147 -13.50906,-9.71499 -21.46061,-10.30633 -2.9569,0.085 -4.84025,0.49385 -6.21371,3.31352 -1.45234,3.06455 -2.46647,6.17578 -2.81654,9.58222 -1.194,7.27521 -2.89116,14.47164 -5.67262,21.32099 -1.06239,2.44029 -2.016,5.62384 -3.8352,7.67013 -0.43314,0.48721 -1.19167,0.0585 -1.67382,-0.0136 -2.16896,-0.54643 -4.3668,-0.91648 -6.5756,-1.26763 -3.06949,-0.45066 -6.11485,-0.41807 -9.17967,0.11805 -0.94424,0.0997 -2.1466,0.25202 -3.09625,0.24864 -0.49935,-0.002 -1.90728,-0.38045 -1.49477,-0.0991 3.67887,2.50958 7.69782,4.48542 11.44727,6.88826 0.2789,0.17873 -0.70035,0.003 -0.97757,-0.17874 -0.27222,-0.17806 -0.35943,-0.54226 -0.53915,-0.81339 -0.82876,-4.40868 -0.3453,-8.9652 -0.51151,-13.42284 0.0548,-2.434 0.093,-4.86517 0.25929,-7.29469 0.0305,-0.44482 0.47088,-1.07458 0.10772,-1.33323 -12.94604,-9.22046 -11.76948,-12.81763 -13.26536,-7.40737 0.29249,4.94249 -0.0811,9.9395 -0.623,14.84742 -0.40824,1.69556 -0.74064,3.93278 -1.80255,5.44164 -2.95226,4.19483 -10.77617,2.98753 -15.00492,3.33644 -14.29928,0.16184 -28.58186,-0.19944 -42.8513,-1.17068 -0.63414,-0.004 -2.61832,0.0344 -3.40157,-0.13239 -0.32045,-0.0682 -1.19023,-0.5407 -0.91056,-0.37004 29.59905,18.06243 13.14337,8.81026 10.50252,5.98431 -0.99883,-3.63215 -0.60456,-7.4955 -1.21491,-11.1976 -0.30503,-2.49961 -0.97034,-4.91175 -1.31153,-7.39735 -0.0465,-0.33853 0.23732,-0.85365 -0.0592,-1.02342 -4.37294,-2.50335 -9.01617,-4.50176 -13.52426,-6.75263 0.75816,3.49122 0.0709,7.22459 0.10596,10.75355 -0.14172,1.44928 -0.24096,5.35274 -1.52753,6.38121 -0.35878,0.2868 -1.373,0.24162 -1.69451,0.25597 -2.37244,0.0282 -4.75248,-0.0372 -7.11503,0.21946 -3.21811,0.33509 -6.43074,0.77133 -9.66711,0.88524 -3.17433,0.0516 -6.41493,0.23127 -9.52517,-0.51957 3.71794,2.22823 7.48201,4.38122 11.15382,6.68468 0.33683,0.21131 -0.79952,-0.16688 -1.12601,-0.39386 -0.32277,-0.2244 -0.5543,-0.56923 -0.74985,-0.91026 -0.75914,-1.32397 -0.90424,-2.95423 -1.10699,-4.42566 -0.1273,-2.23592 -0.49528,-4.42322 -0.57987,-6.6644 -0.47688,-2.97285 -1.30182,-5.87926 -1.65805,-8.87223 -0.68896,-4.00366 -1.03657,-8.08729 -2.89468,-11.77589 -0.26638,-0.55864 -0.4818,-1.14458 -0.79914,-1.67593 -0.28308,-0.47398 -0.52395,-1.03462 -0.99331,-1.3253 -10.00483,-6.19618 -10.50184,-9.12401 -18.54256,-7.15906 -3.44667,0.73888 -6.9036,1.43742 -10.44798,1.06052 z" />
        <path
           style="fill:#000000"
           id="path14"
           d="m 111.0171,279.79917 c -0.56732,-5.80562 1.44987,-11.16072 3.84186,-16.32383 1.96115,-3.63327 4.22573,-7.25847 7.4775,-9.88684 1.92034,-1.55218 2.54973,-1.75609 4.69404,-2.89145 2.54579,-1.02522 5.28445,-2.11449 8.07683,-2.20861 1.36287,-0.0459 2.40617,0.24027 3.7349,0.50021 0.64949,0.18898 1.32025,0.31616 1.94846,0.56694 0.65855,0.26289 1.26309,0.6448 1.89464,0.96721 -3.40006,-1.92419 -6.77064,-3.9014 -10.20016,-5.77257 -0.6808,-0.37145 1.31442,0.8248 1.94898,1.27066 1.52901,1.07436 2.01402,1.54632 3.40998,2.7431 2.36834,2.32802 4.58321,4.86337 6.51594,7.56916 3.44364,5.57043 0.25335,2.55695 14.46412,8.03471 0.20242,0.078 0.17626,-1.10932 0.18115,-2.39207 0.005,-2.7579 -0.15841,-5.51177 0.28619,-8.24255 0.61209,-2.73686 1.95992,-5.22527 4.02853,-7.11185 2.25226,-1.65112 4.96099,-3.62579 7.88963,-3.73633 0.55452,-0.0209 1.10524,0.10095 1.65786,0.15142 0.66844,0.12322 1.34745,0.19879 2.00533,0.36966 1.49488,0.38828 2.89326,0.98834 4.29208,1.63 0.69243,0.31763 2.71187,1.38609 2.05439,1.00129 -13.38563,-7.83418 -12.79329,-7.51391 -8.02816,-4.31915 3.38438,2.35235 6.18486,5.25105 8.67251,8.50425 2.11896,3.12517 4.01344,6.4154 5.62527,9.83051 1.23952,2.34673 2.21301,4.78135 2.99447,7.31467 0.80742,2.27079 1.33373,4.62592 2.1028,6.90705 0.81157,2.10481 1.55532,4.21865 2.12828,6.40026 0.3683,1.79317 1.41459,3.27297 2.44212,4.74064 3.4282,4.43274 7.82627,5.14849 14.00982,8.43822 0.47846,0.25455 3.18145,-0.55954 3.70703,-0.67087 3.6148,-1.13929 7.37758,-1.59044 11.13903,-1.89722 3.46559,-0.14941 6.93543,-0.35614 10.40101,-0.16124 4.94213,0.4457 9.90255,0.52303 14.86051,0.60206 4.42818,0.28782 8.90699,-0.10654 13.31678,0.41108 3.15093,0.41085 6.33125,0.56305 9.50256,0.73641 12.83554,0.19053 25.61366,1.44661 38.40631,2.38312 2.49326,-0.0782 8.83895,1.15403 11.23083,-0.0901 1.03447,-0.53806 0.99931,-1.11552 1.33084,-2.11948 0.004,-0.40495 0.0398,-0.81085 0.0117,-1.21483 -0.0657,-0.94416 -0.29958,-1.87029 -0.39039,-2.81236 -0.18156,-1.8837 -0.0802,-3.6652 0.12564,-5.53987 0.46399,-3.34443 1.42147,-6.57043 2.72869,-9.67342 1.35721,-3.56516 3.11859,-6.94154 4.91912,-10.29641 1.41885,-2.35738 2.99174,-4.73443 5.16034,-6.48091 1.42976,-1.15146 2.97791,-1.95484 4.56146,-2.8632 4.75178,-2.76438 6.08447,-3.46361 11.30356,-1.59308 4.71407,1.96371 12.71859,6.57438 -8.24612,-4.99522 -0.47741,-0.26346 0.90954,0.60365 1.33947,0.93904 1.40922,1.09932 2.13237,1.83347 3.44349,3.06117 2.24517,2.29498 4.667,4.51227 6.41261,7.23055 3.13976,6.46112 11.13094,10.2806 18.0209,9.20879 3.62278,-1.19554 6.31286,-3.9054 9.33642,-6.09362 3.90167,-2.26988 7.96816,-4.34994 12.28081,-5.71599 3.14121,-0.91434 6.42454,-0.9895 9.67082,-1.02954 0.53306,0.0595 2.1226,0.21943 2.69167,0.34616 3.71011,0.82621 18.80841,10.25622 -8.20484,-5.16363 2.72228,1.34981 4.64998,3.40056 6.2924,5.90201 1.76448,2.79409 2.89349,5.90514 3.76088,9.07626 0.50361,2.47418 1.05676,4.93784 1.38038,7.44389 0.22095,2.89195 0.66767,5.75958 1.0758,8.63043 0,0 12.92698,6.3389 12.92698,6.3389 v 0 c -0.47217,-2.82127 -0.61228,-5.68539 -0.95254,-8.52522 -0.31881,-2.57764 -0.7149,-5.13498 -1.34759,-7.65669 -0.89877,-3.27604 -1.98828,-6.51668 -3.67907,-9.47922 -1.47337,-2.64434 -3.08992,-5.03924 -5.84498,-6.4956 -7.39591,-4.23907 -11.87214,-8.9574 -19.77741,-8.85691 -3.33337,0.12832 -6.72123,0.19977 -9.86991,1.43887 -4.26816,1.65179 -8.25677,3.88098 -12.18986,6.21052 -3.01924,1.91227 -5.83507,4.47754 -9.4396,5.16026 -0.88544,0.0229 -1.46393,0.095 -2.34125,-0.11637 -0.36308,-0.0875 -1.36506,-0.59187 -1.04961,-0.39195 19.61886,12.43328 13.24898,10.16988 10.65377,5.72032 -1.65535,-3.05601 -4.38974,-5.29692 -6.74399,-7.80112 -1.03539,-1.02375 -3.08695,-3.40258 -4.29645,-4.1321 -5.72269,-3.45171 -10.53376,-7.05093 -16.63611,-9.00056 -5.48777,-1.32555 -7.04506,-0.17412 -11.66099,2.75443 -4.37112,2.58525 -8.06709,5.14926 -10.37704,9.82509 -1.93536,3.33562 -3.58266,6.81641 -5.15739,10.33532 -1.39451,3.22386 -2.31757,6.60726 -2.78917,10.09267 -0.4418,3.05644 -0.67531,6.18539 -0.0813,9.23788 0.009,0.16427 0.0941,0.34264 0.0269,0.49282 -0.18919,0.42293 -1.16711,0.64864 -1.4133,0.69977 -2.7855,0.57848 -5.68448,0.33812 -8.49936,0.4307 -13.22807,-0.27791 -26.44587,-1.27272 -39.53076,-3.27438 -3.22704,-0.36552 -6.47455,-0.51307 -9.70515,-0.85561 -4.30064,-0.0775 -8.60416,0.076 -12.90528,-0.0282 -5.03863,-0.14559 -10.06766,-0.43969 -15.09418,-0.81626 -3.54328,-0.1371 -7.09457,-0.19713 -10.6207,0.25408 -3.80197,0.41996 -7.57521,1.04381 -11.30583,1.89454 -1.02278,0.1172 -1.73517,0.29206 -2.74082,0.0962 -0.28557,-0.0556 -1.06438,-0.46236 -0.81478,-0.3129 21.50897,12.87872 15.43237,9.38631 11.32025,6.56368 -1.18924,-1.21533 -2.29332,-2.6822 -2.86648,-4.28222 -0.72205,-2.15449 -1.08449,-4.40948 -2.07094,-6.48127 -0.92076,-2.23753 -1.33872,-4.65122 -2.28587,-6.88594 -0.74987,-2.59796 -1.40325,-5.25208 -2.92962,-7.52874 -1.67199,-3.50598 -3.68997,-6.84728 -5.71754,-10.15611 -0.69343,-1.02506 -1.42177,-2.15707 -2.21001,-3.12003 -1.85905,-2.27111 -4.25347,-3.97623 -6.44907,-5.89434 -6.16476,-4.4836 -2.85429,-2.18166 -16.12283,-9.63668 -2.69528,-1.51436 -5.84199,-2.29627 -8.88165,-2.65042 -0.64292,0.0329 -1.29353,-0.006 -1.92875,0.0987 -3.09039,0.50828 -5.76594,2.68584 -8.29838,4.34246 -0.4296,0.39598 -0.90091,0.75103 -1.28881,1.18794 -1.6472,1.8553 -2.52952,4.37695 -3.29415,6.68036 -0.58144,2.77431 -0.3091,5.57152 -0.44852,8.38968 -0.0398,0.43596 -0.1458,1.47083 -0.11302,1.48894 23.67055,13.08482 14.98015,9.88345 11.83854,5.38887 -1.94495,-2.90533 -4.43967,-5.41907 -6.73098,-8.04453 -1.68319,-1.50934 -3.36175,-3.10959 -5.32071,-4.26727 -6.0717,-3.58817 -11.42003,-7.97177 -18.24831,-9.41731 -1.7212,-0.19984 -2.35575,-0.37585 -4.08483,-0.17475 -2.81667,0.32758 -5.49827,1.60781 -8.00567,2.83238 -2.04584,1.21341 -2.97549,1.64961 -4.81488,3.22322 -3.30408,2.82668 -5.4285,6.71707 -7.56159,10.43501 -2.46298,5.22175 -4.456803,10.56798 -5.11435,16.346 z" />
        <path
           style="fill:#000000"
           id="path15"
           d="m 413.05697,292.40605 c 5.60976,-0.50804 11.25102,-0.37756 16.87492,-0.2646 4.84339,0.0249 9.69392,0.12892 14.53532,-0.033 0.40738,-0.0206 2.29187,-0.0196 2.81307,-0.34821 1.94512,-1.22627 0.59547,-3.79556 -0.074,-5.27034 -1.63692,-2.86766 -3.23126,-5.69971 -4.17403,-8.87594 -0.34381,-2.06765 -1.27299,-4.77904 -0.0798,-6.77074 0.2399,-0.40045 0.60344,-0.71239 0.90516,-1.06858 4.04381,-3.03716 9.09725,-3.65638 14.00539,-3.69393 2.18849,0.0805 4.29138,0.53792 6.30329,1.39252 0.52435,0.22273 2.03405,1.02452 1.54105,0.73903 -12.37976,-7.16907 -14.23054,-8.61115 -9.80571,-5.33847 2.81886,2.27753 3.85161,5.66209 4.84232,8.99842 0.99462,2.95463 1.05099,4.52655 0.33748,7.49293 -0.49603,1.92282 -1.72024,3.50888 -2.48579,5.30676 -0.43221,1.45196 0.50118,2.41634 1.44195,3.37287 0.81963,0.72853 0.50533,1.65935 0.49299,2.62462 0.13823,1.83558 1.73424,2.92651 2.78909,4.27384 0.41501,0.53008 0.78286,1.09543 1.17429,1.64315 2.06949,2.96512 3.79755,6.14739 4.94431,9.57811 0.60433,1.94585 0.8849,3.92996 0.64755,5.95284 -0.48142,2.71519 -2.59009,4.31853 -4.66358,5.87471 -3.16051,2.10687 -6.74517,3.28044 -10.45014,3.95948 -3.7668,0.91841 -7.55905,1.25995 -11.41394,0.93094 -2.01767,-0.23294 -4.0997,-0.49355 -6.01512,-1.21932 -2.22172,-0.84182 -22.25715,-12.5322 7.90929,4.54605 -2.32892,-1.81409 -2.85831,-4.56092 -2.9859,-7.35405 0.32226,-3.17973 1.02982,-4.60224 3.41529,-6.71437 0.85946,-1.00852 2.26053,-1.56413 3.08759,-2.6035 0.1767,-0.22205 0.61496,-0.60069 0.38101,-0.7613 -12.20373,-8.37801 -8.1707,-8.9263 -14.02446,-7.836 -2.24575,0.64242 -4.55916,0.92994 -6.88086,1.10992 -2.12863,0.12496 -4.2114,0.61107 -6.33604,0.81705 -2.14971,0.20947 -4.25991,0.25732 -6.37481,-0.17375 -2.50676,-0.13948 -4.97607,-0.58047 -7.47175,-0.83668 -3.01864,-0.2145 -6.03906,-0.38929 -9.063,-0.50629 0,0 11.8218,8.63464 11.8218,8.63464 v 0 c 2.95286,0.0322 5.91272,0.12934 8.84261,0.52251 2.55482,0.3738 5.11851,0.65051 7.67216,1.02624 2.17847,0.19915 4.36996,-0.0328 6.5471,-0.16432 2.083,-0.25134 4.13129,-0.74483 6.23179,-0.85836 2.32911,-0.24145 4.62764,-0.69758 6.9549,-0.89615 5.53814,1.12318 0.16169,0.13314 -11.28531,-7.61348 -0.11497,-0.0778 0.4183,-0.27086 0.39428,-0.13413 -0.0595,0.33861 -1.46386,1.58366 -1.46435,1.58411 -0.41171,0.37262 -0.84062,0.72578 -1.26093,1.08867 -2.83061,2.47925 -3.68758,4.00702 -4.08473,7.75495 -0.0845,3.05274 0.34835,6.21984 2.43953,8.59082 2.76796,1.64934 11.2396,7.85059 16.88351,9.46771 1.97372,0.56551 4.03178,0.75905 6.06771,0.93635 3.98743,0.22795 7.88729,-0.1991 11.77187,-1.15273 3.82541,-0.86502 7.50754,-2.22823 10.75456,-4.47794 2.47858,-1.70046 4.87071,-3.62481 5.6162,-6.69147 0.33303,-2.26437 0.21186,-4.45499 -0.53987,-6.6437 -1.20069,-3.5536 -2.88814,-6.90069 -4.98951,-10.01162 -1.14123,-1.86326 -2.12545,-3.50833 -3.74179,-4.98365 -0.23056,-1.1611 0.49798,-2.34128 -0.12969,-3.4774 -0.58892,-0.8284 -1.35377,-1.32892 -2.07445,-2.0217 0.34871,-1.93629 1.88406,-3.56917 2.2229,-5.53806 1.00701,-3.50923 1.15636,-4.73451 -0.13378,-8.29082 -1.07804,-3.38019 -1.79432,-7.10661 -4.39023,-9.70228 -4.92186,-4.6386 -1.4555,-1.53784 -14.91397,-9.00951 -0.72474,-0.40235 -2.54205,-0.88233 -3.32671,-1.02812 -1.84117,-0.3421 -2.6465,-0.30089 -4.57177,-0.38148 -5.29443,0.22892 -10.59542,1.31687 -14.99094,4.45031 -0.43127,0.48309 -0.9437,0.90448 -1.29381,1.44927 -1.42486,2.21708 -0.58311,5.27413 -0.19396,7.63514 0.78905,3.2809 2.16843,6.24882 4.01077,9.08032 0.0659,0.13617 1.31395,2.48351 1.34287,2.69476 0.10471,0.76477 -2.62912,0.19818 -2.47314,0.60396 -4.75142,0.26539 -9.51037,0.006 -14.26605,0.1509 -5.868,0.12476 -11.74659,0.2015 -17.6033,-0.2646 z" />
        <path
           style="fill:#000000"
           id="path16"
           d="m 405.34335,307.44637 c 0.43272,2.77022 1.01483,5.51244 1.43191,8.28535 0.39326,2.53694 0.46761,5.10632 0.54207,7.66774 0.007,2.32022 0.0143,4.64024 -0.0209,6.96032 -0.0178,2.28423 -1.31816,4.07683 -2.74004,5.75184 -1.65877,1.98512 -4.18159,3.12028 -6.44383,4.30203 -2.19773,1.04813 -4.47877,1.89918 -6.86021,2.41139 -0.25728,-0.0707 -0.53964,-0.0806 -0.77186,-0.21202 -0.26012,-0.14719 -0.92842,-0.74286 -0.66526,-0.60116 3.92737,2.11469 7.71065,4.49525 11.67921,6.53161 0.40383,0.20722 -0.62928,-0.65576 -0.91516,-1.00831 -0.9105,-1.12286 -1.10871,-1.5764 -1.87759,-2.87244 -2.31882,-4.79905 -3.32096,-10.09601 -4.55372,-15.24758 -1.16334,-4.62154 -1.55499,-9.37415 -2.17164,-14.08526 -0.60754,-4.90218 -0.45276,-9.87056 -0.17217,-14.79081 0.46915,-5.11969 0.78221,-10.25439 1.43357,-15.35515 0.35372,-4.19672 1.76035,-8.13402 3.31017,-12.01019 1.32953,-3.49855 4.00012,-5.88238 7.08053,-7.84295 1.59367,-0.74194 0.81118,-0.6318 2.31333,-0.51808 0,0 -11.96821,-8.42471 -11.96821,-8.42471 v 0 c -1.67552,0.57617 -0.84944,0.18957 -2.45921,1.19958 -3.16928,2.27864 -6.05551,4.84619 -7.41923,8.62375 -1.65326,4.01195 -2.99937,8.07778 -3.25149,12.45516 -0.67399,5.13762 -1.11581,10.29141 -1.41871,15.46407 -0.35671,4.94461 -0.6918,9.97251 -0.20234,14.91048 0.63952,4.80188 1.25661,9.61965 2.37168,14.33999 1.20304,5.16874 2.30583,10.37958 4.05256,15.39976 2.96923,6.60304 10.08422,13.33946 17.71837,12.37898 2.35955,-0.73107 4.6758,-1.61677 6.82259,-2.85264 2.4311,-1.3458 5.27823,-2.33961 6.92167,-4.68881 1.50581,-1.96902 3.10771,-4.02915 3.25365,-6.59766 -0.0263,-2.34367 -0.002,-4.68727 -0.0529,-7.03062 -0.0191,-2.63182 -0.12564,-5.26287 -0.4961,-7.87212 -0.44021,-2.62092 -1.05394,-5.22487 -1.15747,-7.88807 z" />
        <path
           style="fill:#000000"
           id="path17"
           d="m 413.33628,309.9171 c -1.37995,-2.1317 -2.53929,-4.39205 -3.61169,-6.69056 -1.11819,-2.32133 -1.43262,-4.85621 -1.59909,-7.39359 -0.22978,-2.47088 0.23027,-3.59473 2.50646,-4.6537 1.23203,-0.61385 2.57436,-0.88707 3.90727,-1.17505 0,0 -11.92717,-8.24216 -11.92717,-8.24216 v 0 c -1.43654,0.38027 -2.88443,0.74685 -4.21579,1.43014 -2.26249,1.38766 -3.73785,3.30457 -3.3652,6.08818 0.21242,2.6713 0.46845,5.41806 1.48667,7.91718 1.00617,2.23248 2.12438,4.40133 3.16153,6.61585 z" />
        <path
           style="fill:#000000"
           id="path18"
           d="m 403.30177,341.97267 c -0.5441,1.45565 -1.08094,2.91725 -1.67894,4.35238 -0.86785,1.35909 -1.8117,2.65095 -2.68024,4.01101 -1.31853,1.66175 -2.64941,3.27905 -4.19657,4.73404 -2.02024,1.64684 -4.02695,3.30203 -6.21469,4.72182 -2.44434,1.41995 -5.11329,2.3196 -7.85382,2.96059 -3.11751,0.53994 -6.24265,1.01714 -9.3938,1.31876 -3.53942,0.49511 -7.03494,0.0561 -10.55288,-0.34244 -3.80042,-0.37443 -7.5914,-1.04633 -10.84245,-3.13323 3.79856,2.18016 7.58439,4.38266 11.39568,6.54049 0.29159,0.16508 -0.57032,-0.35439 -0.83418,-0.56093 -1.18681,-0.92899 -1.6123,-2.2487 -2.08329,-3.62581 -1.11357,-3.39135 -1.88526,-6.84212 -2.32056,-10.38228 -0.95452,-9.48764 3.14829,-3.35425 -13.58171,-11.61374 -0.52171,1.85566 -0.62327,3.78481 -1.11178,5.65562 -0.43032,2.00774 -1.56768,3.62109 -2.74995,5.24441 -1.27671,1.72102 -3.01314,2.85536 -4.91426,3.77387 -2.05365,0.75594 -4.25258,0.81625 -6.41283,0.91371 -3.06684,-0.15995 -6.10668,-0.44818 -9.10415,-1.10979 -4.47834,-2.16591 -11.17058,-5.54199 9.60142,5.52517 0.40797,0.21736 -0.70635,-0.59935 -1.02402,-0.93516 -0.76534,-0.80906 -0.96461,-1.22033 -1.54767,-2.14333 -1.42575,-2.54567 -1.53435,-5.47276 -1.70436,-8.31544 -0.35809,-3.17094 0.29688,-6.36537 0.0791,-9.52539 -2.96852,-9.51443 -11.88803,-9.32864 -19.18118,-9.38092 -3.80953,-0.0862 -7.61832,0.001 -11.42779,0.0277 -4.40189,0.31146 -8.77089,-0.26054 -13.15142,-0.57212 -6.07563,-0.0799 -12.15182,-0.0754 -18.22754,-0.14673 -5.52378,-0.24595 -11.02412,-0.76826 -16.52535,-1.30246 -5.84302,-0.37669 -11.69059,-0.55025 -17.53241,-0.98106 -4.52878,-0.35127 -9.06346,-0.38708 -13.57424,-0.93581 -2.26363,-0.27511 -4.53125,-0.69934 -6.81896,-0.65243 -0.23168,0.0802 -0.51872,0.0702 -0.69505,0.24057 -1.6993,1.64156 -1.00074,6.72237 -0.92402,8.89133 0.004,2.87423 0.31985,5.75612 0.17392,8.62865 -0.12092,1.68933 -0.48264,3.32314 -1.27373,4.82308 -1.51787,2.18714 -3.91769,1.89773 -6.26355,1.70753 -3.16041,-0.41172 -6.14482,-1.14506 -8.81559,-2.92002 22.30401,12.62938 10.78131,9.02652 9.82761,3.36337 0.005,-0.0434 0.0354,-0.16894 0.0152,-0.13019 -2.66778,5.12025 5.14734,3.0541 -13.23211,-6.40776 -0.1955,-0.10064 0.14369,0.41702 0.1869,0.63262 0.1461,0.72892 0.20529,1.47259 0.30656,2.20908 0.4791,2.49358 0.6764,5.0206 0.91722,7.54365 0.12813,3.04401 -0.31041,5.41866 -1.73548,8.08317 -1.02985,1.43536 -2.22832,2.72065 -3.80915,3.52389 -4.60381,1.6192 -9.48204,2.05375 -14.3103,2.45772 -6.48188,0.32324 -12.99071,0.61384 -19.47379,0.19696 -5.55836,-0.8304 -10.95688,-2.712 -16.21997,-4.65205 -2.22052,-0.83169 -2.99678,-1.06035 -5.05779,-2.05102 -0.62466,-0.30026 -2.44006,-1.3152 -1.83935,-0.9695 19.0722,10.97589 12.60691,7.771 8.74276,4.49655 -3.418,-3.55171 -5.75919,-7.96986 -8.05648,-12.28668 -2.53786,-4.75214 -4.09348,-9.87292 -5.19273,-15.12052 -0.87881,-5.45836 -1.43052,-10.97331 -1.8037,-16.48825 -0.39355,-6.01097 -0.30274,-12.03991 -0.59529,-18.0533 -0.65396,-6.57581 -0.44757,-13.1887 -0.78341,-19.77722 -0.48788,-4.33626 -0.45217,-8.65012 -0.007,-12.98046 0,0 -12.53872,-6.53591 -12.53872,-6.53591 v 0 c -0.37012,4.43789 -0.35395,8.84374 0.12347,13.27952 0.44646,6.59045 0.71838,13.19258 0.87045,19.79615 0.22776,6.0345 0.18023,12.07764 0.62765,18.10372 0.34999,5.53426 0.43649,11.12422 1.5484,16.57388 1.08524,5.40817 2.39502,10.72379 5.19454,15.54883 2.18702,4.26137 4.25593,8.62973 7.18764,12.44383 6.08911,6.08489 14.38076,9.62323 22.40551,12.47006 5.41377,1.88344 10.89575,4.11277 16.66795,4.45445 6.48902,0.031 12.98172,-0.12845 19.46478,-0.39476 5.13429,-0.35598 10.31953,-0.97685 15.24744,-2.51316 2.00032,-1.06306 3.13814,-2.34991 4.31929,-4.27856 1.33802,-2.80692 1.95076,-5.69395 1.92835,-8.82074 0.0284,-2.54915 -0.25225,-5.08267 -0.69928,-7.59253 -0.0937,-0.6526 -0.10836,-2.82409 -0.11514,-2.82855 -3.5306,-2.32648 -12.05617,-12.86194 -13.60062,-6.57917 0.23894,7.29282 9.71113,9.77895 14.82995,12.46247 2.84771,1.38876 5.96875,1.98421 9.10942,2.28684 3.23458,0.08 5.34767,-0.20576 7.4229,-2.90298 0.96026,-1.69205 1.35541,-3.5093 1.47326,-5.45033 0.21821,-2.98832 -0.35331,-5.9615 -0.47211,-8.94585 -0.0907,-2.10668 -0.47454,-4.66801 0.29776,-6.69805 0.0823,-0.21629 0.50362,-0.13425 0.59781,-0.13694 2.13461,0.063 4.25463,0.34188 6.38226,0.50864 4.39066,0.34763 8.79739,0.32287 13.19368,0.58866 5.88324,0.30433 11.76411,0.67773 17.63909,1.10991 5.45231,0.47324 10.90225,1.04394 16.38241,1.04922 6.21019,-0.004 12.43107,0.0402 18.62388,0.54994 4.38951,0.30824 8.78502,0.50283 13.18683,0.46293 3.79636,-0.0173 7.59345,-0.0315 11.38932,0.0107 1.13522,0.0636 2.71684,0.10486 3.85161,0.34334 0.44665,0.0939 1.68789,0.66855 1.30127,0.42599 -29.4052,-18.44782 -13.61617,-8.87327 -10.70006,-6.21953 0.47241,1.3076 0.31552,2.40061 0.30265,3.78454 -0.0176,1.89579 0.10874,3.79328 0.055,5.68957 0.005,2.98546 -0.0893,6.08564 1.19309,8.85686 3.46931,6.61235 10.66377,10.55011 17.88901,12.26439 3.06488,0.49985 6.17757,0.68707 9.27699,0.82252 2.36592,-0.0807 4.72503,-0.33809 6.89143,-1.37347 2.01426,-1.14127 3.84997,-2.49821 5.27551,-4.35276 1.25474,-1.78036 2.53388,-3.5127 2.9688,-5.70572 0.48306,-1.60947 0.80681,-3.2477 1.10351,-4.89863 -4.38803,-2.3441 -8.83303,-4.58453 -13.16408,-7.03232 -0.12816,-0.0724 0.29927,-0.28362 0.40344,-0.17961 0.16712,0.16684 0.0839,0.46489 0.11655,0.69878 0.1859,1.33343 0.25724,2.67943 0.46694,4.01006 0.53126,3.52398 1.08903,7.0504 2.10844,10.47279 0.32789,1.73038 0.75593,4.19433 2.42673,5.19225 4.46944,2.66944 9.00909,5.21954 13.51363,7.82932 3.42808,1.57204 7.12994,2.10565 10.86217,2.46269 3.67601,0.49274 7.31252,0.8428 11.00947,0.26616 3.18735,-0.38645 6.39528,-0.76655 9.52723,-1.47552 2.84973,-0.7869 5.69607,-1.68361 8.19606,-3.30917 2.24489,-1.48743 4.28736,-3.25497 6.39794,-4.92373 1.59608,-1.56085 3.11231,-3.22606 4.52862,-4.946 0.90038,-1.42433 1.91598,-2.769 2.75589,-4.23145 0.66955,-1.47606 1.14844,-3.03889 1.96552,-4.44586 z" />
        <path
           style="fill:#000000"
           id="path19"
           d="m 180.41825,400.31174 c 2.22102,-4.30653 4.18102,-8.72576 6.05953,-13.19446 2.20976,-4.98196 5.07206,-9.63605 7.56658,-14.48052 1.65102,-3.70907 4.24802,-6.82592 6.56461,-10.11356 0.86271,-1.48738 1.70764,-2.98871 2.43034,-4.55042 0.0134,-0.029 0.88764,-2.09674 1.01695,-2.2522 0.0823,-0.099 0.25618,-0.0264 0.38427,-0.0396 -20.11759,-10.67784 -13.6654,-8.15777 -9.81014,-3.32316 1.50211,1.88369 2.80515,3.87998 4.10736,5.90292 2.23126,3.53542 4.48027,7.05501 6.55979,10.68219 1.52693,2.73469 3.07143,5.47788 4.89248,8.02971 1.73017,2.22941 3.71911,4.22257 5.68285,6.2408 5.76904,6.28703 9.13876,8.31869 18.43171,12.81106 0.39503,0.19097 0.71146,-0.51371 1.0672,-0.77057 0.24089,-0.44873 0.53355,-0.8733 0.72267,-1.34619 0.15647,-0.39122 0.70095,-2.63431 0.7989,-3.04053 0.4997,-2.0723 0.91225,-4.16304 1.38023,-6.24275 0.57737,-3.21947 1.60631,-6.33759 2.23867,-9.54188 0.61254,-2.52345 0.99346,-5.06701 1.21473,-7.65114 0.37569,-1.5595 0.1158,-4.99347 1.21305,-6.19191 0.26078,-0.28483 0.64367,-0.42689 0.9655,-0.64034 5.87148,-1.93679 12.23701,-1.82125 18.35856,-1.90551 4.55252,0.003 9.10419,0.0973 13.65465,0.2263 0.42996,0.0114 0.86164,-0.006 1.28986,0.0342 1.1419,0.10733 2.26282,0.46779 3.39874,0.62115 0.62264,0.0841 1.25003,0.12813 1.87504,0.19219 0.75268,0.11092 1.50536,0.22183 2.25804,0.33274 3.68396,0.60406 7.45167,0.83734 11.03021,1.95779 4.48753,1.80058 13.04601,7.17188 -10.96685,-6.4131 -0.17753,-0.10043 0.34036,0.23256 0.47487,0.38588 0.27816,0.31703 0.69027,1.08016 0.8935,1.43492 0.94626,2.00212 2.06454,3.91327 3.06956,5.88451 1.46129,2.51465 2.81909,5.08494 4.15536,7.66758 1.20823,2.35987 1.99768,4.90213 2.52589,7.4922 0.23768,2.23679 0.75715,4.42671 1.05371,6.65383 0.68248,7.18394 3.48659,5.62111 14.30293,10.24763 0.2767,0.11835 3.04165,-1.85961 3.05658,-1.86983 4.35268,-3.13131 7.50029,-7.59416 10.88552,-11.68994 2.26296,-3.15907 4.66282,-6.21669 6.97094,-9.34112 2.41695,-3.42844 5.05234,-6.69642 7.5305,-10.08388 1.72837,-2.19457 3.79489,-4.12883 5.96861,-5.87835 -0.0543,0.0262 0.77421,-0.57775 0.94697,-0.29577 0.14217,0.23206 0.37943,0.92563 0.1354,0.80515 -4.04017,-1.99466 -7.68664,-4.76054 -11.8129,-6.57042 -0.61376,-0.26921 0.65017,1.1747 0.91504,1.79035 0.3463,0.80489 0.61026,1.64276 0.91539,2.46414 2.2148,6.93221 4.52835,13.83039 6.73953,20.7641 1.08371,3.84937 2.26906,7.66378 4.18353,11.18664 1.43986,2.32773 3.25784,4.38257 4.82255,6.62463 1.11929,1.79641 2.14607,3.65074 3.17042,5.50294 0.84795,1.29959 1.82288,2.48736 2.40699,3.94024 0.21401,0.63796 0.19117,0.31642 0.0803,0.96372 0,0 14.02662,5.42563 14.02662,5.42563 v 0 c -0.5454,0.39265 -0.31645,0.42802 -0.6693,-0.1873 -0.619,-1.48964 -1.11221,-3.05043 -2.37487,-4.15351 -1.14621,-1.85906 -2.23457,-3.74743 -3.27087,-5.66779 -1.55298,-2.27463 -3.27639,-4.41012 -4.96808,-6.58072 -2.23298,-3.44849 -3.6364,-7.29088 -4.88699,-11.19063 -2.51165,-6.77442 -5.09333,-13.55724 -6.57296,-20.64926 -0.21573,-0.81278 -0.42792,-1.6265 -0.6472,-2.43833 -0.17038,-0.63072 -0.006,-1.48887 -0.52176,-1.88926 -4.32019,-3.35055 -8.92984,-10.40631 -14.04368,-8.4727 -0.25011,0.0946 -0.92454,0.72004 -1.0835,0.85902 -2.05622,1.99543 -4.0028,4.11976 -5.72698,6.40971 -2.39256,3.4675 -5.03405,6.70375 -7.69404,9.96284 -2.26518,3.11548 -4.3581,6.3415 -6.54938,9.50816 -3.2443,4.04743 -6.2784,8.49552 -10.90764,11.0788 -0.52398,0.25464 -1.01899,0.58051 -1.57195,0.76392 -0.3986,0.13222 -1.59276,-0.0685 -1.24815,0.17151 3.74284,2.60693 7.84761,4.65433 11.69478,7.10469 0.22345,0.14233 -0.60173,0.0433 -0.77997,-0.15276 -0.1765,-0.1941 -0.23716,-1.80571 -0.24694,-1.95434 -0.27015,-2.29851 -0.88375,-4.51021 -1.18914,-6.79776 -0.39705,-2.73397 -1.16851,-5.37865 -2.30358,-7.9028 -1.40657,-2.52372 -2.62295,-5.15664 -4.15922,-7.60199 -0.90586,-1.97164 -1.96085,-3.86453 -2.9043,-5.81702 -0.0531,-0.12757 -0.97967,-2.2944 -0.99661,-2.30518 -7.76184,-4.93859 -8.75241,-6.8683 -14.49225,-8.10296 -3.53378,-0.62735 -7.12168,-0.8718 -10.65286,-1.52197 -3.06605,-0.53203 -6.12357,-1.38774 -9.25859,-1.22997 -4.32365,0.0783 -8.64802,0.14335 -12.96899,0.32358 -3.70568,0.13152 -7.4241,0.22106 -11.123,0.49104 -1.78204,0.13007 -4.53632,0.37024 -6.32445,0.84406 -0.7312,0.19375 -1.41343,0.53946 -2.12015,0.80919 -0.4681,0.38381 -1.01321,0.68941 -1.40431,1.15145 -1.37727,1.62711 -0.87759,4.74381 -1.45042,6.70942 -0.17418,2.53299 -0.53714,5.04366 -1.17168,7.50581 -0.53291,3.24483 -1.27796,6.45091 -1.80707,9.6966 -0.47972,2.04227 -1.06076,4.03198 -1.64432,6.04573 -0.11592,0.39998 -0.57822,2.11822 -0.78982,2.59342 -0.0769,0.17274 -0.22322,0.30528 -0.33484,0.45793 -3.6707,-3.2429 -0.0272,0.005 11.49597,6.68683 0.39088,0.22667 -0.76849,-0.47813 -1.12757,-0.75242 -1.6061,-1.22685 -3.00886,-2.70479 -4.34476,-4.21229 -1.80506,-2.05493 -3.71978,-3.98447 -5.52814,-6.03511 -2.03783,-2.4187 -3.60298,-5.25594 -5.25171,-7.94266 -1.97212,-3.7456 -4.39416,-7.21332 -6.60446,-10.81937 -1.31912,-1.99417 -2.61654,-4.00083 -3.97643,-5.96769 -0.37675,-0.54491 -0.75909,-1.08595 -1.13995,-1.62801 -0.28843,-0.41052 -0.43384,-0.97812 -0.86791,-1.22971 -4.52232,-2.62116 -9.24755,-4.87549 -13.87132,-7.31323 -0.71704,0.96783 -0.95751,1.93324 -1.39682,3.0485 -0.42849,1.08781 -0.79801,1.83397 -1.34243,2.88215 -0.26768,0.51537 -0.55099,1.02246 -0.82648,1.5337 -1.11956,1.66725 -2.45146,3.17773 -3.57225,4.83538 -1.16678,1.72568 -1.8686,3.73787 -2.84294,5.56518 -2.56084,4.85423 -5.20136,9.69503 -7.37284,14.7331 -1.80519,4.47145 -3.93547,8.7485 -7.0169,12.495 z" />
      </g>
    </g>
  </g>
</svg>
